<?xml version="1.0" encoding="UTF-8" standalone="no"?><!DOCTYPE svg PUBLIC "-//W3C//DTD SVG 1.1//EN" "http://www.w3.org/Graphics/SVG/1.1/DTD/svg11.dtd"><svg width="100%" height="100%" viewBox="0 0 100 100" version="1.1" xmlns="http://www.w3.org/2000/svg" xmlns:xlink="http://www.w3.org/1999/xlink" xml:space="preserve" xmlns:serif="http://www.serif.com/" style="fill-rule:evenodd;clip-rule:evenodd;stroke-linejoin:round;stroke-miterlimit:2;"><path d="M27.426,87.15c-2.349,1.875 -4.863,2.849 -7.41,2.85c-11.038,0.004 -20.007,-17.915 -20.016,-39.992c-0.009,-22.077 8.946,-40.004 19.984,-40.008c2.552,-0.001 5.072,0.975 7.427,2.856c4.016,-1.688 12.626,-2.856 22.589,-2.856c9.957,0 18.562,1.167 22.582,2.853c2.352,-1.879 4.869,-2.853 7.418,-2.853c11.038,0 20,17.923 20,40c0,22.077 -8.962,40 -20,40c-2.55,0 -5.067,-0.975 -7.418,-2.853c-4.019,1.687 -12.625,2.853 -22.582,2.853c-9.951,-0 -18.552,-1.165 -22.574,-2.85Z" style="fill:none;"/><clipPath id="_clip1"><path d="M27.426,87.15c-2.349,1.875 -4.863,2.849 -7.41,2.85c-11.038,0.004 -20.007,-17.915 -20.016,-39.992c-0.009,-22.077 8.946,-40.004 19.984,-40.008c2.552,-0.001 5.072,0.975 7.427,2.856c4.016,-1.688 12.626,-2.856 22.589,-2.856c9.957,0 18.562,1.167 22.582,2.853c2.352,-1.879 4.869,-2.853 7.418,-2.853c11.038,0 20,17.923 20,40c0,22.077 -8.962,40 -20,40c-2.55,0 -5.067,-0.975 -7.418,-2.853c-4.019,1.687 -12.625,2.853 -22.582,2.853c-9.951,-0 -18.552,-1.165 -22.574,-2.85Z"/></clipPath><g clip-path="url(#_clip1)"><path d="M20.427,86.008c-1.889,0.261 -4.269,-1.631 -4.269,-1.631c0,0 -2.739,-2.499 -5.256,-7.011c-0.461,-0.826 -2.765,-4.959 -4.457,-10.946c-0.301,-1.066 -1.856,-6.571 -2.102,-13.685c-0.123,-3.569 -0.007,-6.532 0.015,-7.099c0.273,-6.954 1.829,-12.279 2.132,-13.314c1.696,-5.801 3.942,-9.579 4.402,-10.353c2.417,-4.064 4.555,-5.761 5.054,-6.157c0.276,-0.219 2.388,-1.77 4.28,-1.815c0.733,-0.017 3.927,1.515 3.927,1.515c0,0 1.366,2.412 0.382,6.198c-3.532,13.602 -6.477,24.973 -4.217,50.31c0.221,2.48 1.362,4.992 1.642,5.687c1.082,-0.155 0.617,-7.873 0.776,-7.824c0.809,5.619 3.743,12.028 3.969,12.887c-4.483,4.064 -6.278,3.239 -6.278,3.239Zm-3.672,-12.03c1.549,-0.6 1.145,-5.778 1.005,-6.37c-0.291,-1.225 -1.636,-7.794 -1.386,-17.342c0.213,-8.116 1.956,-19.412 2.473,-20.47c0.206,-0.42 -0.244,-5.048 -2.408,-5.333c-2.584,-0.341 -4.886,4.628 -5.13,5.156c-1.495,3.228 -3.085,8.635 -3.336,15.657c-0.02,0.552 -0.122,3.422 0.009,6.901c0.235,6.222 1.542,10.778 1.802,11.687c1.411,4.916 3.09,7.337 3.483,7.904c0.188,0.271 1.946,2.806 3.486,2.21Z" style="fill:#fff;stroke:#04000e;stroke-width:1px;"/><path d="M38.739,14.123c4.705,11.818 -2.314,72.286 -2.314,72.286c0,0 -3.315,-0.47 -4.054,-0.917c-0.107,-0.065 -0.695,-0.265 -1.331,-0.832c-1.002,-0.894 -1.931,-2.961 -2.057,-3.241c-0.231,-0.513 -1.045,-2.326 -2.249,-6.665c-0.234,-0.843 -1.4,-5.044 -2.221,-10.708c-0.171,-1.181 -1.064,-7.346 -0.566,-14.9c0.184,-2.789 0.239,-16.803 5.499,-33.293l3.108,-1.017c-3.501,14.677 -4.708,32.007 -4.904,34.812c-0.526,7.564 0.033,12.377 0.157,13.445c0.078,0.669 0.6,5.168 1.694,8.251c0.13,0.367 1.059,2.985 2.289,4.304c0.176,0.188 1.271,1.362 2.7,1.752c2.385,-18.856 2.811,-52.047 1.171,-62.535l3.078,-0.742Z" style="fill:#fff;stroke:#04000e;stroke-width:1px;"/><path d="M39.285,86.409c0,0 7.467,-65.091 1.864,-72.525l3.346,-0.248c0.241,-0.027 2.677,-0.07 4.009,0.487c1.484,0.621 1.972,2.115 2.227,2.534c1.073,1.763 2.116,5.257 2.297,5.738c0.303,0.803 1.785,4.73 2.807,10.349c0.245,1.347 1.406,7.741 1.137,17.078c-0.53,18.359 -3.77,31.824 -6.973,36.735l-2.219,0c-0.444,1.795 3,-13.627 4.222,-22.014c-0.896,-0.017 -4.129,0.318 -5.558,0.08c-0.918,1.692 -2.151,15.662 -4.568,21.934l-2.593,-0.148Zm8.164,-35.581c1.919,0.381 5.43,1.822 6.125,1.82l0.15,-2.623c0.41,-8.195 -0.301,-13.761 -0.453,-14.948c-0.09,-0.703 -0.699,-5.468 -1.882,-8.661c-0.13,-0.351 -1.078,-2.911 -2.368,-4.03c-1.243,-1.078 -2.461,-1.175 -2.696,-1.194c1.827,11.899 1.217,27.266 1.123,29.636Z" style="fill:#fff;stroke:#04000e;stroke-width:1px;"/><path d="M59.055,85.197c0.267,1.069 -3.414,0.978 -3.414,0.978c0.191,-1.599 1.072,-1.44 3.495,-26.158c1.515,-15.45 0.336,-32.782 -6.777,-46.423c0.575,0.044 7.353,-0.244 14.111,1.251c5.05,4.337 6.37,12.236 6.566,13.415c0.181,1.086 1.145,6.869 0.026,13.761c-0.924,5.687 -2.513,9.226 -2.853,9.984c6.821,-5.106 3.242,21.276 -3.953,32.951l-3.229,1.221c0,0 12.452,-32.445 2.865,-31.347c-1.536,1.66 -3.31,2.822 -3.31,2.822l-3.526,27.548Zm4.16,-38.823c1.938,-0.108 5.059,-1.193 5.247,-1.508c0.305,-0.51 2.094,-3.914 1.767,-7.901c-0.347,-4.229 -0.214,-6.313 -0.354,-7.512c-0.477,-4.09 -2.129,-6.583 -2.353,-7.14c-4.26,0.117 -3.152,0.396 -7.382,0.546c0.578,1.959 3.037,8.472 3.076,23.516Z" style="fill:#fff;stroke:#04000e;stroke-width:1px;"/><path d="M75.944,84.459c-1.557,-1.321 -3.115,-1.435 -4.672,-0.973c0,0 7.172,-13.186 6.436,-36.398c-0.085,-2.691 1.523,-24.327 -8.123,-32.031l4.305,0.714c5.641,3.79 6.635,11.849 8.013,18.3c0.857,4.011 1.159,7.256 1.241,8.142c2.226,-1.302 3.075,-4.443 3.197,-4.895c0.179,-0.662 1.067,-3.949 0.609,-8.556c-0.508,-5.102 -2.241,-8.296 -2.597,-8.951c-2.176,-4.002 -4.987,-5.404 -5.556,-5.687c0.243,-0.115 1.913,-0.907 3.187,-1.061c2.959,1.284 7.1,4.762 9.035,12.831c1.179,4.923 1.096,9.528 0.716,12.927c-0.316,2.829 0.416,2.567 0.247,3.214c8.805,8.313 2.216,34.724 -7.948,43.244l-4.4,0.894c6.131,-5.34 14.89,-43.559 6.942,-38.994c-1.078,1.663 -2.608,4.08 -2.608,4.08c0,0 -1.98,27.07 -8.025,33.199Z" style="fill:#fff;stroke:#04000e;stroke-width:1px;"/></g><path d="M27.426,87.15c-2.349,1.875 -4.863,2.849 -7.41,2.85c-11.038,0.004 -20.007,-17.915 -20.016,-39.992c-0.009,-22.077 8.946,-40.004 19.984,-40.008c2.552,-0.001 5.072,0.975 7.427,2.856c4.016,-1.688 12.626,-2.856 22.589,-2.856c9.957,0 18.562,1.167 22.582,2.853c2.352,-1.879 4.869,-2.853 7.418,-2.853c11.038,0 20,17.923 20,40c0,22.077 -8.962,40 -20,40c-2.55,0 -5.067,-0.975 -7.418,-2.853c-4.019,1.687 -12.625,2.853 -22.582,2.853c-9.951,-0 -18.552,-1.165 -22.574,-2.85Z" style="fill:none;stroke:#fff;stroke-width:3.33px;stroke-linecap:round;stroke-miterlimit:1.5;"/></svg>